# xmcd CD database file
#
# Track frame offsets:
#	150
#	19359
#	39278
#	57072
#	79793
#	95629
#	114060
#	130434
#	144955
#	159634
#
# Disc length: 2319 seconds
#
# Revision: 0
# Processed by: cddbd v1.5.2PL0 Copyright (c) Steve Scherf et al.
# Submitted via: CDex 1.70beta2
#
DISCID=79090d0a
DTITLE=ししまいブラザーズ - 緋鳥～ヒドリ
DYEAR=2008
DGENRE=東方アレンジ
TTITLE0=青い鳥症候群 (ハルトマンの妖怪少女)
TTITLE1=鷺の一刀 (東方妖々夢 ～ Ancient Temple)
TTITLE2=油揚げをさらわれる (妖々跋扈)
TTITLE3=川蝉の嘴 (フォールオブフォール ～ 秋めく滝)
TTITLE4=鳳凰の羽 (エクステンドアッシュ ～ 蓬莱人)
TTITLE5=雀の涙 (夜雀の歌声 ～ Night Bird)
TTITLE6=風斬羽 (広有射怪鳥事 ～ Till When？)
TTITLE7=八咫烏の原子核 (霊知の太陽信仰～Nuclear Fusion)
TTITLE8=隼の瞳 (少女さとり～3rd eye)
TTITLE9=緋鳥 (月まで届け、不死の煙)
EXTD=YEAR: 2008
EXTT0=
EXTT1=
EXTT2=
EXTT3=
EXTT4=
EXTT5=
EXTT6=
EXTT7=
EXTT8=
EXTT9=
PLAYORDER=
